PathFileType	4	(X/Y/Z)	E:\Qualisys_Data\Carbon_Farble_Plate\Data\Amateur_Runner\S1\T3\S1T3V11_c3d.trc
DataRate	CameraRate	NumFrames	NumMarkers	Units	OrigDataRate	OrigDataStartFrame	OrigNumFrames
200.000000	200.000000	4	39	mm	200.000000	38	311
Frame#	Time	LSHO			RSHO			LICST			RICST			LASIS			LHEEL			RASIS			LTROC			RTROC			SACR			LTH1			LSK4			LTH2			LTH3			RHM5			LSK2			LTH4			RTH1			LTOE			RTH2			RTH3			RTH4			LLEP			RLEP			LSK1			LSK3			RSK1			LHM5			RSK2			LFT1			RSK3			RSK4			LLME			RLME			RTOE			RHEEL			RFT1			RFT2			LFT2			
		X1	Y1	Z1	X2	Y2	Z2	X3	Y3	Z3	X4	Y4	Z4	X5	Y5	Z5	X6	Y6	Z6	X7	Y7	Z7	X8	Y8	Z8	X9	Y9	Z9	X10	Y10	Z10	X11	Y11	Z11	X12	Y12	Z12	X13	Y13	Z13	X14	Y14	Z14	X15	Y15	Z15	X16	Y16	Z16	X17	Y17	Z17	X18	Y18	Z18	X19	Y19	Z19	X20	Y20	Z20	X21	Y21	Z21	X22	Y22	Z22	X23	Y23	Z23	X24	Y24	Z24	X25	Y25	Z25	X26	Y26	Z26	X27	Y27	Z27	X28	Y28	Z28	X29	Y29	Z29	X30	Y30	Z30	X31	Y31	Z31	X32	Y32	Z32	X33	Y33	Z33	X34	Y34	Z34	X35	Y35	Z35	X36	Y36	Z36	X37	Y37	Z37	X38	Y38	Z38	X39	Y39	Z39	

39	0.19	-1897.614501953125	1477.733154296875	-512.64990234375	-1897.413452148438	1441.657592773438	-181.5847625732422	-1952.1201171875	997.251953125	-506.3271484375	-1948.457763671875	1030.151977539062	-206.2891693115234	-1903.904418945312	962.14599609375	-477.1865844726562	-2221.278564453125	369.8900451660156	-410.2870178222656	-1908.530395507812	981.6043701171876	-211.1061401367188	-2007.2177734375	871.8798217773438	-516.0255737304688	-2016.618530273438	894.133056640625	-179.0819396972656	-2066.577880859375	1029.955444335938	-349.7476806640625	-1830.034301757812	767.56103515625	-497.2810363769531	-2079.66845703125	432.4816284179688	-441.5396423339844	-1903.256958007812	731.4446411132812	-524.939208984375	-1788.169311523438	672.2545166015625	-489.2498474121094	-2019.064697265625	70.38833618164062	-227.3965606689453	-1989.292236328125	466.4806823730469	-481.3308715820312	-1865.721313476562	638.7305908203125	-507.2642211914062	-1877.242309570312	767.313720703125	-198.9218902587891	-2108.643310546875	145.6728515625	-405.0001831054688	-1954.074462890625	758.25390625	-174.8268127441406	-1871.278442382812	665.7405395507812	-210.7546844482422	-1950.315185546875	659.2954711914062	-191.8744201660156	-1792.335327148438	513.4921264648438	-476.53662109375	-1911.917724609375	491.9024658203125	-238.4539337158203	-1959.446411132812	390.2286987304688	-470.7277526855469	-2056.475341796875	358.7854309082031	-464.2277526855469	-1994.300537109375	317.5113220214844	-228.0608978271484	-2159.141845703125	194.7408599853516	-464.625244140625	-2065.91259765625	356.1878051757812	-229.9893035888672	-2242.109375	349.8385009765625	-379.4550170898438	-2040.929443359375	229.6878814697266	-243.288818359375	-2110.6650390625	269.6499938964844	-255.7873840332031	-2172.65283203125	336.0700988769531	-455.9159240722656	-2134.226318359375	138.5216369628906	-240.5986175537109	-1964.496215820312	70.66383361816406	-300.709716796875	-2216.687255859375	110.4208450317383	-280.9275817871094	-2209.628662109375	79.62060546875	-310.9767456054688	-2211.75	84.91427612304688	-257.9759521484375	-2253.888671875	354.8655395507812	-434.2385864257812
40	0.195	-1884.166381835938	1480.71337890625	-513.7714233398438	-1879.1904296875	1444.910522460938	-182.873779296875	-1935.213745117188	1001.376098632812	-505.9746398925781	-1930.939697265625	1032.315185546875	-205.8987121582031	-1887.260986328125	965.564697265625	-477.4545288085938	-2194.869140625	360.6419677734375	-409.8106994628906	-1890.893798828125	983.89111328125	-210.9959106445312	-1989.610961914062	875.6322631835938	-517.0407104492188	-2000.677856445312	896.617431640625	-179.4204864501953	-2048.89794921875	1032.65185546875	-348.5915222167969	-1812.125244140625	773.7923583984375	-496.6542053222656	-2055.73291015625	429.394287109375	-441.2311706542969	-1884.269287109375	736.33837890625	-524.8219604492188	-1769.23291015625	679.0125732421875	-489.1294860839844	-2018.291381835938	69.77457427978516	-228.4951477050781	-1965.483032226562	465.9937438964844	-480.2649841308594	-1845.422729492188	644.1681518554688	-506.9415283203125	-1864.198364257812	767.158447265625	-200.1638641357422	-2071.49755859375	141.9802398681641	-404.6452331542969	-1940.09033203125	759.330078125	-174.8473663330078	-1860.325317382812	665.853271484375	-212.2739868164062	-1938.358642578125	661.2767944335938	-193.23876953125	-1769.7041015625	519.8886108398438	-475.416748046875	-1907.213500976562	492.7689819335938	-239.7223510742188	-1933.022827148438	390.3939514160156	-469.8578186035156	-2029.209716796875	356.9234313964844	-464.0781860351562	-1990.726928710938	319.4579162597656	-228.0682220458984	-2124.210693359375	189.234619140625	-464.2541809082031	-2062.285888671875	359.0621032714844	-229.9672241210938	-2214.75	340.2186279296875	-378.9166564941406	-2038.79443359375	231.9510498046875	-242.7662200927734	-2107.64208984375	272.6858825683594	-255.5041809082031	-2144.479248046875	328.7340393066406	-455.3208618164062	-2132.394775390625	141.6918640136719	-240.5922698974609	-1963.960815429688	70.36229705810547	-301.1281127929688	-2216.1201171875	113.3522033691406	-281.7085876464844	-2208.960205078125	81.36259460449219	-310.2903442382812	-2211.064208984375	88.39313507080078	-258.5474853515625	-2220.017333984375	339.4398803710938	-430.3824462890625
41	0.2	-1870.322021484375	1484.284912109375	-514.3040771484375	-1861.276977539062	1448.760864257812	-183.8559417724609	-1918.341064453125	1004.973205566406	-505.3011779785156	-1913.927490234375	1034.830078125	-206.3148193359375	-1869.502197265625	969.2841186523438	-476.4304504394531	-2168.488525390625	351.7006530761719	-409.5201110839844	-1874.9833984375	985.1337280273438	-212.0774383544922	-1971.600219726562	879.6680908203125	-517.5860595703125	-1984.523315429688	899.306640625	-179.6346740722656	-2032.040893554688	1035.831787109375	-348.7432250976562	-1793.396606445312	779.7938842773438	-495.8814697265625	-2030.270751953125	425.6595458984375	-440.5268249511719	-1865.349731445312	741.4793701171875	-525.08447265625	-1749.025512695312	685.7620849609375	-487.7754821777344	-2017.989135742188	70.18539428710938	-228.7455291748047	-1943.83203125	468.0706481933594	-479.0791625976562	-1825.048706054688	650.0302734375	-506.5094909667969	-1851.879760742188	767.0701293945312	-204.0411529541016	-2034.557983398438	138.5142517089844	-404.3406372070312	-1927.415405273438	761.3026123046875	-175.9635162353516	-1848.987060546875	666.848388671875	-212.8083343505859	-1927.150756835938	663.3370361328125	-193.2949523925781	-1748.083129882812	526.1201171875	-474.9636535644531	-1901.427734375	493.3300476074219	-239.1059875488281	-1906.469604492188	391.3701477050781	-469.2929382324219	-2002.017822265625	354.5578308105469	-463.5774536132812	-1986.82275390625	322.1689147949219	-228.4092102050781	-2089.271728515625	183.0859985351562	-463.6869506835938	-2057.988037109375	362.0680236816406	-229.8816070556641	-2186.615478515625	329.8499450683594	-378.9382019042969	-2035.08349609375	234.7792816162109	-242.7464599609375	-2104.390625	275.8025207519531	-255.4738464355469	-2116.25927734375	322.5045166015625	-454.9418334960938	-2130.241943359375	145.0899200439453	-239.8576202392578	-1962.6904296875	70.28886413574219	-301.723876953125	-2213.5830078125	116.8651351928711	-281.177490234375	-2206.833251953125	84.60807800292969	-309.2965698242188	-2209.83837890625	92.2047882080078	-258.0067749023438	-2192.3759765625	328.1952514648438	-429.2219543457031
42	0.205	-1857.033813476562	1487.887084960938	-515.2529296875	-1843.17041015625	1452.445068359375	-184.6405639648438	-1901.33642578125	1009.447082519531	-505.76025390625	-1897.01611328125	1037.572631835938	-205.1963348388672	-1851.947631835938	973.7477416992188	-475.5450439453125	-2141.9599609375	342.2079772949219	-409.2790832519531	-1857.053100585938	987.5906982421876	-209.9642181396484	-1953.679931640625	884.0048217773438	-518.3550415039062	-1968.4501953125	902.1435546875	-180.1837005615234	-2014.484985351562	1039.25341796875	-348.1376953125	-1775.278686523438	785.6819458007812	-495.053466796875	-2006.010864257812	421.9643249511719	-440.0908813476562	-1846.212890625	746.1466674804688	-524.7796630859375	-1729.048950195312	692.642578125	-486.865966796875	-2017.777465820312	70.52023315429688	-228.5809631347656	-1920.595581054688	467.2515563964844	-478.2554626464844	-1804.631958007812	655.2611694335938	-506.0526428222656	-1838.055297851562	767.801513671875	-204.4961090087891	-1998.445190429688	135.2102355957031	-404.0050354003906	-1913.616577148438	764.3809204101562	-176.2541046142578	-1838.551513671875	667.5210571289062	-214.8856048583984	-1916.874633789062	665.86865234375	-194.2505340576172	-1726.270385742188	531.929443359375	-474.1661071777344	-1896.247802734375	495.5246887207031	-240.0176239013672	-1882.452514648438	393.5616455078125	-469.8360595703125	-1974.607543945312	351.1896362304688	-463.4928283691406	-1983.089233398438	325.0273742675781	-227.9124298095703	-2054.228515625	177.0309448242188	-463.1202697753906	-2053.9931640625	365.4649963378906	-230.2511901855469	-2158.76318359375	319.7397155761719	-378.7247619628906	-2033.367553710938	238.0088043212891	-243.6212310791016	-2101.353515625	279.770263671875	-255.7480163574219	-2087.391845703125	314.8750915527344	-454.5982055664062	-2128.057861328125	148.5379028320312	-239.1079254150391	-1963.556274414062	69.48857879638672	-301.7638549804688	-2210.34765625	122.2646331787109	-280.8130493164062	-2205.4873046875	91.05345916748048	-309.6346435546875	-2212.98046875	95.70091247558594	-258.8079833984375	-2164.593505859375	317.7633972167969	-429.2173156738281
